<?xml version="1.0" standalone="no"?><!DOCTYPE svg PUBLIC "-//W3C//DTD SVG 1.1//EN" "http://www.w3.org/Graphics/SVG/1.1/DTD/svg11.dtd"><svg t="1785405081985" class="icon" viewBox="0 0 1024 1024" version="1.1" xmlns="http://www.w3.org/2000/svg" p-id="3789" xmlns:xlink="http://www.w3.org/1999/xlink" width="1em" height="1em"><path d="M512 42.709333c22.4 0 44.373333 5.973333 63.786667 17.066667h0.042666l298.666667 170.666667 0.170667 0.128A128.042667 128.042667 0 0 1 938.666667 341.290667v341.461333a128.042667 128.042667 0 0 1-64 110.677333l-0.170667 0.085334-298.666667 170.709333c-18.133333 10.368-38.4 16.128-59.264 16.896a42.794667 42.794667 0 0 1-9.173333 0 127.872 127.872 0 0 1-59.221333-16.938667v0.042667l-298.666667-170.666667-0.170667-0.128A128.042667 128.042667 0 0 1 85.333333 682.709333V341.333333l0.298667-8.405333A128 128 0 0 1 149.333333 230.570667l0.170667-0.085334 298.666667-170.709333a128 128 0 0 1 63.829333-17.066667zM170.666667 682.666667l0.384 5.589333a42.666667 42.666667 0 0 0 20.778666 31.232L469.333333 878.037333v-341.376L170.666667 365.013333V682.666667z m384-145.962667v341.333333l277.504-158.549333A42.752 42.752 0 0 0 853.333333 682.666667V364.970667l-298.666666 171.648zM512 128a42.666667 42.666667 0 0 0-21.333333 5.717333l-0.170667 0.085334-276.224 157.866666L512 462.762667l297.685333-171.093334-276.138666-157.866666-0.170667-0.085334a42.666667 42.666667 0 0 0-21.333333-5.717333z" p-id="3790" fill="currentColor"></path></svg>